<svg xmlns="http://www.w3.org/2000/svg" viewBox="0 0 100 100">
  <!-- Card-style tile: brand color, ink border (matches site cards) -->
  <rect x="7" y="7" width="86" height="86" rx="22" fill="#C55932" stroke="#111A17" stroke-width="5"/>
  <!-- Heart, scaled from a 24x24 path and centered -->
  <g transform="translate(50 53) scale(2.6) translate(-12 -12)">
    <!-- Hard shadow (offset ink heart) -->
    <path d="M12 20.5l-1.45-1.32C5.4 14.6 2 11.6 2 7.9 2 5 4.3 2.7 7.2 2.7c1.66 0 3.24.77 4.3 2.04 1.06-1.27 2.64-2.04 4.3-2.04 2.9 0 5.2 2.3 5.2 5.2 0 3.7-3.4 6.7-8.55 11.28z" fill="#111A17" transform="translate(1.9 1.9)"/>
    <!-- White heart with ink outline -->
    <path d="M12 20.5l-1.45-1.32C5.4 14.6 2 11.6 2 7.9 2 5 4.3 2.7 7.2 2.7c1.66 0 3.24.77 4.3 2.04 1.06-1.27 2.64-2.04 4.3-2.04 2.9 0 5.2 2.3 5.2 5.2 0 3.7-3.4 6.7-8.55 11.28z" fill="#FFFFFF" stroke="#111A17" stroke-width="1.7" stroke-linejoin="round"/>
  </g>
</svg>
