<svg xmlns="http://www.w3.org/2000/svg" viewBox="0 0 100 100">
  <g transform="translate(50 50.5) scale(3) translate(-12 -12)">
    <path d="M12 20.5l-1.45-1.32C5.4 14.6 2 11.6 2 7.9 2 5 4.3 2.7 7.2 2.7c1.66 0 3.24.77 4.3 2.04 1.06-1.27 2.64-2.04 4.3-2.04 2.9 0 5.2 2.3 5.2 5.2 0 3.7-3.4 6.7-8.55 11.28z" fill="#111A17" transform="translate(1.9 1.9)"/>
    <path d="M12 20.5l-1.45-1.32C5.4 14.6 2 11.6 2 7.9 2 5 4.3 2.7 7.2 2.7c1.66 0 3.24.77 4.3 2.04 1.06-1.27 2.64-2.04 4.3-2.04 2.9 0 5.2 2.3 5.2 5.2 0 3.7-3.4 6.7-8.55 11.28z" fill="#FFFFFF" stroke="#111A17" stroke-width="1.7" stroke-linejoin="round"/>
  </g>
</svg>
